<svg id="a7803877-49e9-44d1-9f00-f5a8384e8148" data-name="Calque 1" xmlns="http://www.w3.org/2000/svg" xmlns:xlink="http://www.w3.org/1999/xlink" viewBox="0 0 376.85 420.4"><defs><style>.aa569874-89d3-4230-ba20-ee9adb833fb7{fill:#1d1d1b;}</style></defs><title>cupcake</title><image width="457" height="546" transform="translate(46.36 7.24) scale(0.6 0.61)" xlink:href="../../../DOCUMENTS/PORFOLIO/images/2af09921946391.5630a1458a34b-removebg-preview.png"/><path class="aa569874-89d3-4230-ba20-ee9adb833fb7" d="M92.06,326.35c-29-27-55.83-57.58-72.88-93.63A170.36,170.36,0,0,1,3.21,177a147.28,147.28,0,0,1,5.14-55.28A165.43,165.43,0,0,1,71.79,32.87C104.26,10.15,144.66.42,184,2.86A193.42,193.42,0,0,1,290.75,43.74,224.41,224.41,0,0,1,357.9,131c14.9,34.21,21.52,73.79,12.15,110.4a109.22,109.22,0,0,1-26.57,48.72c-14.21,14.84-32.19,25.45-50.64,34.12A383,383,0,0,1,163.7,358.72c-5.53.49-11.08.86-16.62,1.11s-11,.14-16.49.82a34.11,34.11,0,0,0-14.54,5.28c-4.39,2.83-8.56,6-12.89,8.95A361.7,361.7,0,0,1,45.88,406.4Q31.2,412.84,16,417.92c-1.52.5-.87,2.92.66,2.41,29.83-9.94,53.65-34.78,63.56-64.47a95.64,95.64,0,0,0,4.83-26c.08-1.61-2.42-1.6-2.5,0C81.14,360.4,64.15,389.32,39,406.45A93.55,93.55,0,0,1,16,417.92l.66,2.41a365.39,365.39,0,0,0,60.8-26.76q14.48-8,28.17-17.34c4.5-3.06,8.8-6.5,13.5-9.24,5.25-3.07,10.93-4,16.94-4.27,11.46-.51,22.87-.94,34.28-2.14q16.74-1.75,33.29-4.93a385.28,385.28,0,0,0,66.11-18.91c37.59-14.5,76.53-34.67,94.74-72.64,16.39-34.18,15.07-74.76,4.43-110.43a225.88,225.88,0,0,0-58-95.59c-27.47-27-62-46.44-99.87-54.15C171.77-4.07,129.87,0,93.59,17.31c-34.26,16.32-62.08,44.78-78.28,79A158.75,158.75,0,0,0,.57,149.7a153.51,153.51,0,0,0,6,57.16c11.35,38.39,35.5,71.8,62.75,100.55,6.76,7.13,13.77,14,21,20.71,1.18,1.09,2.95-.67,1.77-1.77Z"/></svg>